<svg width="29" height="18" viewBox="0 0 29 18" fill="none" xmlns="http://www.w3.org/2000/svg">
<path d="M6.99194 17.8909C5.20972 17.8909 3.7408 17.2887 2.58521 16.0842C1.43774 14.8717 0.864014 13.1261 0.864014 10.8474C0.864014 8.56063 1.45402 6.81095 2.63403 5.59839C3.82218 4.37769 5.3562 3.76733 7.23608 3.76733C7.87085 3.76733 8.50155 3.82837 9.12817 3.95044C9.7548 4.07251 10.2146 4.19458 10.5076 4.31665L10.9836 4.51196V0.263916C10.9836 0.101156 11.0691 0.0157064 11.24 0.00756836H12.9856C13.1484 0.00756836 13.2338 0.0930176 13.2419 0.263916V17.2683C13.2419 17.4311 13.1565 17.5125 12.9856 17.5125H11.6184C11.4556 17.5125 11.3621 17.4311 11.3376 17.2683L11.1179 15.8889C11.0203 16.0273 10.8087 16.2389 10.4832 16.5237C10.1658 16.8004 9.8606 17.0242 9.56763 17.1951C8.81079 17.6589 7.95223 17.8909 6.99194 17.8909ZM7.4314 5.51294C6.15373 5.51294 5.11206 5.95646 4.3064 6.84351C3.50887 7.72241 3.11011 9.04077 3.11011 10.7986C3.11011 12.5564 3.47632 13.887 4.20874 14.7903C4.94116 15.6855 5.90959 16.1331 7.11401 16.1331C8.25334 16.1331 9.31535 15.5715 10.3 14.4485C10.7558 13.9277 10.9836 13.6143 10.9836 13.5085V6.25757C9.90129 5.76115 8.7172 5.51294 7.4314 5.51294ZM17.7463 13.4109V3.71362C17.7463 3.5769 17.8114 3.50854 17.9417 3.50854H19.3479C19.4781 3.50854 19.5432 3.5769 19.5432 3.71362V6.80933H23.6252C23.7555 6.80933 23.8206 6.87769 23.8206 7.0144V8.0105C23.8206 8.14722 23.7555 8.21558 23.6252 8.21558H19.5432V13.4109C19.5432 14.4005 19.7711 15.1492 20.2268 15.657C20.689 16.1583 21.3271 16.4089 22.1409 16.4089C22.857 16.4089 23.4983 16.3113 24.0647 16.116L24.3479 16.0085C24.4781 15.9565 24.5432 16.0118 24.5432 16.1746V17.1511C24.5432 17.2618 24.4781 17.3497 24.3479 17.4148C23.6773 17.6817 22.8765 17.8152 21.9456 17.8152C20.663 17.8152 19.6409 17.4115 18.8792 16.6042C18.1239 15.797 17.7463 14.7325 17.7463 13.4109ZM26.5549 15.9109C26.5549 15.644 26.6884 15.5105 26.9553 15.5105H28.2542C28.4039 15.5105 28.5081 15.5431 28.5667 15.6082C28.6252 15.6667 28.6545 15.7677 28.6545 15.9109V17.2097C28.6545 17.3595 28.6252 17.4636 28.5667 17.5222C28.5081 17.5808 28.4039 17.6101 28.2542 17.6101H26.9553C26.8121 17.6101 26.7079 17.5808 26.6428 17.5222C26.5842 17.4636 26.5549 17.3595 26.5549 17.2097V15.9109Z" fill="black"/>
</svg>
