<svg xmlns="http://www.w3.org/2000/svg" xmlns:xlink="http://www.w3.org/1999/xlink" version="1.1" x="0px" y="0px" viewBox="0 0 26 32.5" style="enable-background:new 0 0 26 26;" xml:space="preserve"><g><path d="M13,0C5.82,0,0,5.82,0,13s5.82,13,13,13c7.18,0,13-5.82,13-13S20.18,0,13,0z M13,20c-3.865,0-7-3.135-7-7   c0-3.75,2.953-6.803,6.658-6.982C11.056,7.095,10,8.924,10,11c0,3.314,2.687,6,6,6c1.227,0,2.367-0.37,3.318-1.003   C18.195,18.361,15.791,20,13,20z"/></g><text x="0" y="41" fill="#000000" font-size="5px" font-weight="bold" font-family="'Helvetica Neue', Helvetica, Arial-Unicode, Arial, Sans-serif">Created by Hea Poh Lin</text><text x="0" y="46" fill="#000000" font-size="5px" font-weight="bold" font-family="'Helvetica Neue', Helvetica, Arial-Unicode, Arial, Sans-serif">from the Noun Project</text></svg>