<svg width="75" height="74" viewBox="0 0 75 74" fill="none" xmlns="http://www.w3.org/2000/svg">
<path d="M3.05132 0.138184H0.51416V2.67534H3.05132V0.138184Z" fill="#373737"/>
<path d="M5.58848 0.138184H3.05132V2.67534H5.58848V0.138184Z" fill="#373737"/>
<path d="M8.12563 0.138184H5.58848V2.67534H8.12563V0.138184Z" fill="#373737"/>
<path d="M10.6628 0.138184H8.12563V2.67534H10.6628V0.138184Z" fill="#373737"/>
<path d="M13.2 0.138184H10.6628V2.67534H13.2V0.138184Z" fill="#373737"/>
<path d="M15.7371 0.138184H13.2V2.67534H15.7371V0.138184Z" fill="#373737"/>
<path d="M18.2743 0.138184H15.7371V2.67534H18.2743V0.138184Z" fill="#373737"/>
<path d="M23.3486 0.138184H20.8114V2.67534H23.3486V0.138184Z" fill="#373737"/>
<path d="M25.8857 0.138184H23.3486V2.67534H25.8857V0.138184Z" fill="#373737"/>
<path d="M30.9601 0.138184H28.4229V2.67534H30.9601V0.138184Z" fill="#373737"/>
<path d="M33.4972 0.138184H30.9601V2.67534H33.4972V0.138184Z" fill="#373737"/>
<path d="M46.183 0.138184H43.6458V2.67534H46.183V0.138184Z" fill="#373737"/>
<path d="M48.7202 0.138184H46.183V2.67534H48.7202V0.138184Z" fill="#373737"/>
<path d="M51.2573 0.138184H48.7202V2.67534H51.2573V0.138184Z" fill="#373737"/>
<path d="M53.7945 0.138184H51.2573V2.67534H53.7945V0.138184Z" fill="#373737"/>
<path d="M58.8688 0.138184H56.3316V2.67534H58.8688V0.138184Z" fill="#373737"/>
<path d="M61.406 0.138184H58.8688V2.67534H61.406V0.138184Z" fill="#373737"/>
<path d="M63.9431 0.138184H61.406V2.67534H63.9431V0.138184Z" fill="#373737"/>
<path d="M66.4803 0.138184H63.9431V2.67534H66.4803V0.138184Z" fill="#373737"/>
<path d="M69.0174 0.138184H66.4803V2.67534H69.0174V0.138184Z" fill="#373737"/>
<path d="M71.5546 0.138184H69.0174V2.67534H71.5546V0.138184Z" fill="#373737"/>
<path d="M74.0917 0.138184H71.5546V2.67534H74.0917V0.138184Z" fill="#373737"/>
<path d="M3.05132 2.67534H0.51416V5.2125H3.05132V2.67534Z" fill="#373737"/>
<path d="M18.2743 2.67534H15.7371V5.2125H18.2743V2.67534Z" fill="#373737"/>
<path d="M28.4229 2.67534H25.8857V5.2125H28.4229V2.67534Z" fill="#373737"/>
<path d="M46.183 2.67534H43.6458V5.2125H46.183V2.67534Z" fill="#373737"/>
<path d="M48.7202 2.67534H46.183V5.2125H48.7202V2.67534Z" fill="#373737"/>
<path d="M51.2573 2.67534H48.7202V5.2125H51.2573V2.67534Z" fill="#373737"/>
<path d="M53.7945 2.67534H51.2573V5.2125H53.7945V2.67534Z" fill="#373737"/>
<path d="M58.8688 2.67534H56.3316V5.2125H58.8688V2.67534Z" fill="#373737"/>
<path d="M74.0917 2.67534H71.5546V5.2125H74.0917V2.67534Z" fill="#373737"/>
<path d="M3.05132 5.2125H0.51416V7.74966H3.05132V5.2125Z" fill="#373737"/>
<path d="M8.12563 5.2125H5.58848V7.74966H8.12563V5.2125Z" fill="#373737"/>
<path d="M10.6628 5.2125H8.12563V7.74966H10.6628V5.2125Z" fill="#373737"/>
<path d="M13.2 5.2125H10.6628V7.74966H13.2V5.2125Z" fill="#373737"/>
<path d="M18.2743 5.2125H15.7371V7.74966H18.2743V5.2125Z" fill="#373737"/>
<path d="M28.4229 5.2125H25.8857V7.74966H28.4229V5.2125Z" fill="#373737"/>
<path d="M30.9601 5.2125H28.4229V7.74966H30.9601V5.2125Z" fill="#373737"/>
<path d="M36.0344 5.2125H33.4972V7.74966H36.0344V5.2125Z" fill="#373737"/>
<path d="M38.5715 5.2125H36.0344V7.74966H38.5715V5.2125Z" fill="#373737"/>
<path d="M43.6458 5.2125H41.1087V7.74966H43.6458V5.2125Z" fill="#373737"/>
<path d="M51.2573 5.2125H48.7202V7.74966H51.2573V5.2125Z" fill="#373737"/>
<path d="M53.7945 5.2125H51.2573V7.74966H53.7945V5.2125Z" fill="#373737"/>
<path d="M58.8688 5.2125H56.3316V7.74966H58.8688V5.2125Z" fill="#373737"/>
<path d="M63.9431 5.2125H61.406V7.74966H63.9431V5.2125Z" fill="#373737"/>
<path d="M66.4803 5.2125H63.9431V7.74966H66.4803V5.2125Z" fill="#373737"/>
<path d="M69.0174 5.2125H66.4803V7.74966H69.0174V5.2125Z" fill="#373737"/>
<path d="M74.0917 5.2125H71.5546V7.74966H74.0917V5.2125Z" fill="#373737"/>
<path d="M3.05132 7.74966H0.51416V10.2868H3.05132V7.74966Z" fill="#373737"/>
<path d="M8.12563 7.74966H5.58848V10.2868H8.12563V7.74966Z" fill="#373737"/>
<path d="M10.6628 7.74966H8.12563V10.2868H10.6628V7.74966Z" fill="#373737"/>
<path d="M13.2 7.74966H10.6628V10.2868H13.2V7.74966Z" fill="#373737"/>
<path d="M18.2743 7.74966H15.7371V10.2868H18.2743V7.74966Z" fill="#373737"/>
<path d="M23.3486 7.74966H20.8114V10.2868H23.3486V7.74966Z" fill="#373737"/>
<path d="M25.8857 7.74966H23.3486V10.2868H25.8857V7.74966Z" fill="#373737"/>
<path d="M36.0344 7.74966H33.4972V10.2868H36.0344V7.74966Z" fill="#373737"/>
<path d="M41.1087 7.74966H38.5715V10.2868H41.1087V7.74966Z" fill="#373737"/>
<path d="M43.6458 7.74966H41.1087V10.2868H43.6458V7.74966Z" fill="#373737"/>
<path d="M48.7202 7.74966H46.183V10.2868H48.7202V7.74966Z" fill="#373737"/>
<path d="M51.2573 7.74966H48.7202V10.2868H51.2573V7.74966Z" fill="#373737"/>
<path d="M53.7945 7.74966H51.2573V10.2868H53.7945V7.74966Z" fill="#373737"/>
<path d="M58.8688 7.74966H56.3316V10.2868H58.8688V7.74966Z" fill="#373737"/>
<path d="M63.9431 7.74966H61.406V10.2868H63.9431V7.74966Z" fill="#373737"/>
<path d="M66.4803 7.74966H63.9431V10.2868H66.4803V7.74966Z" fill="#373737"/>
<path d="M69.0174 7.74966H66.4803V10.2868H69.0174V7.74966Z" fill="#373737"/>
<path d="M74.0917 7.74966H71.5546V10.2868H74.0917V7.74966Z" fill="#373737"/>
<path d="M3.05132 10.2868H0.51416V12.824H3.05132V10.2868Z" fill="#373737"/>
<path d="M8.12563 10.2868H5.58848V12.824H8.12563V10.2868Z" fill="#373737"/>
<path d="M10.6628 10.2868H8.12563V12.824H10.6628V10.2868Z" fill="#373737"/>
<path d="M13.2 10.2868H10.6628V12.824H13.2V10.2868Z" fill="#373737"/>
<path d="M18.2743 10.2868H15.7371V12.824H18.2743V10.2868Z" fill="#373737"/>
<path d="M23.3486 10.2868H20.8114V12.824H23.3486V10.2868Z" fill="#373737"/>
<path d="M25.8857 10.2868H23.3486V12.824H25.8857V10.2868Z" fill="#373737"/>
<path d="M28.4229 10.2868H25.8857V12.824H28.4229V10.2868Z" fill="#373737"/>
<path d="M33.4972 10.2868H30.9601V12.824H33.4972V10.2868Z" fill="#373737"/>
<path d="M36.0344 10.2868H33.4972V12.824H36.0344V10.2868Z" fill="#373737"/>
<path d="M41.1087 10.2868H38.5715V12.824H41.1087V10.2868Z" fill="#373737"/>
<path d="M48.7202 10.2868H46.183V12.824H48.7202V10.2868Z" fill="#373737"/>
<path d="M53.7945 10.2868H51.2573V12.824H53.7945V10.2868Z" fill="#373737"/>
<path d="M58.8688 10.2868H56.3316V12.824H58.8688V10.2868Z" fill="#373737"/>
<path d="M63.9431 10.2868H61.406V12.824H63.9431V10.2868Z" fill="#373737"/>
<path d="M66.4803 10.2868H63.9431V12.824H66.4803V10.2868Z" fill="#373737"/>
<path d="M69.0174 10.2868H66.4803V12.824H69.0174V10.2868Z" fill="#373737"/>
<path d="M74.0917 10.2868H71.5546V12.824H74.0917V10.2868Z" fill="#373737"/>
<path d="M3.05132 12.824H0.51416V15.3611H3.05132V12.824Z" fill="#373737"/>
<path d="M18.2743 12.824H15.7371V15.3611H18.2743V12.824Z" fill="#373737"/>
<path d="M23.3486 12.824H20.8114V15.3611H23.3486V12.824Z" fill="#373737"/>
<path d="M25.8857 12.824H23.3486V15.3611H25.8857V12.824Z" fill="#373737"/>
<path d="M28.4229 12.824H25.8857V15.3611H28.4229V12.824Z" fill="#373737"/>
<path d="M30.9601 12.824H28.4229V15.3611H30.9601V12.824Z" fill="#373737"/>
<path d="M36.0344 12.824H33.4972V15.3611H36.0344V12.824Z" fill="#373737"/>
<path d="M38.5715 12.824H36.0344V15.3611H38.5715V12.824Z" fill="#373737"/>
<path d="M51.2573 12.824H48.7202V15.3611H51.2573V12.824Z" fill="#373737"/>
<path d="M58.8688 12.824H56.3316V15.3611H58.8688V12.824Z" fill="#373737"/>
<path d="M74.0917 12.824H71.5546V15.3611H74.0917V12.824Z" fill="#373737"/>
<path d="M3.05132 15.3611H0.51416V17.8983H3.05132V15.3611Z" fill="#373737"/>
<path d="M5.58848 15.3611H3.05132V17.8983H5.58848V15.3611Z" fill="#373737"/>
<path d="M8.12563 15.3611H5.58848V17.8983H8.12563V15.3611Z" fill="#373737"/>
<path d="M10.6628 15.3611H8.12563V17.8983H10.6628V15.3611Z" fill="#373737"/>
<path d="M13.2 15.3611H10.6628V17.8983H13.2V15.3611Z" fill="#373737"/>
<path d="M15.7371 15.3611H13.2V17.8983H15.7371V15.3611Z" fill="#373737"/>
<path d="M18.2743 15.3611H15.7371V17.8983H18.2743V15.3611Z" fill="#373737"/>
<path d="M23.3486 15.3611H20.8114V17.8983H23.3486V15.3611Z" fill="#373737"/>
<path d="M28.4229 15.3611H25.8857V17.8983H28.4229V15.3611Z" fill="#373737"/>
<path d="M33.4972 15.3611H30.9601V17.8983H33.4972V15.3611Z" fill="#373737"/>
<path d="M38.5715 15.3611H36.0344V17.8983H38.5715V15.3611Z" fill="#373737"/>
<path d="M43.6458 15.3611H41.1087V17.8983H43.6458V15.3611Z" fill="#373737"/>
<path d="M48.7202 15.3611H46.183V17.8983H48.7202V15.3611Z" fill="#373737"/>
<path d="M53.7945 15.3611H51.2573V17.8983H53.7945V15.3611Z" fill="#373737"/>
<path d="M58.8688 15.3611H56.3316V17.8983H58.8688V15.3611Z" fill="#373737"/>
<path d="M61.406 15.3611H58.8688V17.8983H61.406V15.3611Z" fill="#373737"/>
<path d="M63.9431 15.3611H61.406V17.8983H63.9431V15.3611Z" fill="#373737"/>
<path d="M66.4803 15.3611H63.9431V17.8983H66.4803V15.3611Z" fill="#373737"/>
<path d="M69.0174 15.3611H66.4803V17.8983H69.0174V15.3611Z" fill="#373737"/>
<path d="M71.5546 15.3611H69.0174V17.8983H71.5546V15.3611Z" fill="#373737"/>
<path d="M74.0917 15.3611H71.5546V17.8983H74.0917V15.3611Z" fill="#373737"/>
<path d="M23.3486 17.8983H20.8114V20.4354H23.3486V17.8983Z" fill="#373737"/>
<path d="M28.4229 17.8983H25.8857V20.4354H28.4229V17.8983Z" fill="#373737"/>
<path d="M33.4972 17.8983H30.9601V20.4354H33.4972V17.8983Z" fill="#373737"/>
<path d="M36.0344 17.8983H33.4972V20.4354H36.0344V17.8983Z" fill="#373737"/>
<path d="M51.2573 17.8983H48.7202V20.4354H51.2573V17.8983Z" fill="#373737"/>
<path d="M3.05132 20.4354H0.51416V22.9726H3.05132V20.4354Z" fill="#373737"/>
<path d="M5.58848 20.4354H3.05132V22.9726H5.58848V20.4354Z" fill="#373737"/>
<path d="M8.12563 20.4354H5.58848V22.9726H8.12563V20.4354Z" fill="#373737"/>
<path d="M13.2 20.4354H10.6628V22.9726H13.2V20.4354Z" fill="#373737"/>
<path d="M18.2743 20.4354H15.7371V22.9726H18.2743V20.4354Z" fill="#373737"/>
<path d="M23.3486 20.4354H20.8114V22.9726H23.3486V20.4354Z" fill="#373737"/>
<path d="M28.4229 20.4354H25.8857V22.9726H28.4229V20.4354Z" fill="#373737"/>
<path d="M33.4972 20.4354H30.9601V22.9726H33.4972V20.4354Z" fill="#373737"/>
<path d="M36.0344 20.4354H33.4972V22.9726H36.0344V20.4354Z" fill="#373737"/>
<path d="M43.6458 20.4354H41.1087V22.9726H43.6458V20.4354Z" fill="#373737"/>
<path d="M56.3316 20.4354H53.7945V22.9726H56.3316V20.4354Z" fill="#373737"/>
<path d="M58.8688 20.4354H56.3316V22.9726H58.8688V20.4354Z" fill="#373737"/>
<path d="M61.406 20.4354H58.8688V22.9726H61.406V20.4354Z" fill="#373737"/>
<path d="M63.9431 20.4354H61.406V22.9726H63.9431V20.4354Z" fill="#373737"/>
<path d="M66.4803 20.4354H63.9431V22.9726H66.4803V20.4354Z" fill="#373737"/>
<path d="M74.0917 20.4354H71.5546V22.9726H74.0917V20.4354Z" fill="#373737"/>
<path d="M5.58848 22.9726H3.05132V25.5098H5.58848V22.9726Z" fill="#373737"/>
<path d="M10.6628 22.9726H8.12563V25.5098H10.6628V22.9726Z" fill="#373737"/>
<path d="M13.2 22.9726H10.6628V25.5098H13.2V22.9726Z" fill="#373737"/>
<path d="M20.8114 22.9726H18.2743V25.5098H20.8114V22.9726Z" fill="#373737"/>
<path d="M25.8857 22.9726H23.3486V25.5098H25.8857V22.9726Z" fill="#373737"/>
<path d="M33.4972 22.9726H30.9601V25.5098H33.4972V22.9726Z" fill="#373737"/>
<path d="M36.0344 22.9726H33.4972V25.5098H36.0344V22.9726Z" fill="#373737"/>
<path d="M43.6458 22.9726H41.1087V25.5098H43.6458V22.9726Z" fill="#373737"/>
<path d="M46.183 22.9726H43.6458V25.5098H46.183V22.9726Z" fill="#373737"/>
<path d="M51.2573 22.9726H48.7202V25.5098H51.2573V22.9726Z" fill="#373737"/>
<path d="M53.7945 22.9726H51.2573V25.5098H53.7945V22.9726Z" fill="#373737"/>
<path d="M56.3316 22.9726H53.7945V25.5098H56.3316V22.9726Z" fill="#373737"/>
<path d="M63.9431 22.9726H61.406V25.5098H63.9431V22.9726Z" fill="#373737"/>
<path d="M66.4803 22.9726H63.9431V25.5098H66.4803V22.9726Z" fill="#373737"/>
<path d="M69.0174 22.9726H66.4803V25.5098H69.0174V22.9726Z" fill="#373737"/>
<path d="M3.05132 25.5098H0.51416V28.0469H3.05132V25.5098Z" fill="#373737"/>
<path d="M8.12563 25.5098H5.58848V28.0469H8.12563V25.5098Z" fill="#373737"/>
<path d="M10.6628 25.5098H8.12563V28.0469H10.6628V25.5098Z" fill="#373737"/>
<path d="M13.2 25.5098H10.6628V28.0469H13.2V25.5098Z" fill="#373737"/>
<path d="M18.2743 25.5098H15.7371V28.0469H18.2743V25.5098Z" fill="#373737"/>
<path d="M20.8114 25.5098H18.2743V28.0469H20.8114V25.5098Z" fill="#373737"/>
<path d="M28.4229 25.5098H25.8857V28.0469H28.4229V25.5098Z" fill="#373737"/>
<path d="M30.9601 25.5098H28.4229V28.0469H30.9601V25.5098Z" fill="#373737"/>
<path d="M33.4972 25.5098H30.9601V28.0469H33.4972V25.5098Z" fill="#373737"/>
<path d="M36.0344 25.5098H33.4972V28.0469H36.0344V25.5098Z" fill="#373737"/>
<path d="M38.5715 25.5098H36.0344V28.0469H38.5715V25.5098Z" fill="#373737"/>
<path d="M41.1087 25.5098H38.5715V28.0469H41.1087V25.5098Z" fill="#373737"/>
<path d="M46.183 25.5098H43.6458V28.0469H46.183V25.5098Z" fill="#373737"/>
<path d="M48.7202 25.5098H46.183V28.0469H48.7202V25.5098Z" fill="#373737"/>
<path d="M53.7945 25.5098H51.2573V28.0469H53.7945V25.5098Z" fill="#373737"/>
<path d="M56.3316 25.5098H53.7945V28.0469H56.3316V25.5098Z" fill="#373737"/>
<path d="M58.8688 25.5098H56.3316V28.0469H58.8688V25.5098Z" fill="#373737"/>
<path d="M61.406 25.5098H58.8688V28.0469H61.406V25.5098Z" fill="#373737"/>
<path d="M63.9431 25.5098H61.406V28.0469H63.9431V25.5098Z" fill="#373737"/>
<path d="M66.4803 25.5098H63.9431V28.0469H66.4803V25.5098Z" fill="#373737"/>
<path d="M69.0174 25.5098H66.4803V28.0469H69.0174V25.5098Z" fill="#373737"/>
<path d="M71.5546 25.5098H69.0174V28.0469H71.5546V25.5098Z" fill="#373737"/>
<path d="M5.58848 28.0469H3.05132V30.5841H5.58848V28.0469Z" fill="#373737"/>
<path d="M8.12563 28.0469H5.58848V30.5841H8.12563V28.0469Z" fill="#373737"/>
<path d="M15.7371 28.0469H13.2V30.5841H15.7371V28.0469Z" fill="#373737"/>
<path d="M25.8857 28.0469H23.3486V30.5841H25.8857V28.0469Z" fill="#373737"/>
<path d="M28.4229 28.0469H25.8857V30.5841H28.4229V28.0469Z" fill="#373737"/>
<path d="M30.9601 28.0469H28.4229V30.5841H30.9601V28.0469Z" fill="#373737"/>
<path d="M33.4972 28.0469H30.9601V30.5841H33.4972V28.0469Z" fill="#373737"/>
<path d="M36.0344 28.0469H33.4972V30.5841H36.0344V28.0469Z" fill="#373737"/>
<path d="M38.5715 28.0469H36.0344V30.5841H38.5715V28.0469Z" fill="#373737"/>
<path d="M41.1087 28.0469H38.5715V30.5841H41.1087V28.0469Z" fill="#373737"/>
<path d="M43.6458 28.0469H41.1087V30.5841H43.6458V28.0469Z" fill="#373737"/>
<path d="M46.183 28.0469H43.6458V30.5841H46.183V28.0469Z" fill="#373737"/>
<path d="M51.2573 28.0469H48.7202V30.5841H51.2573V28.0469Z" fill="#373737"/>
<path d="M53.7945 28.0469H51.2573V30.5841H53.7945V28.0469Z" fill="#373737"/>
<path d="M56.3316 28.0469H53.7945V30.5841H56.3316V28.0469Z" fill="#373737"/>
<path d="M58.8688 28.0469H56.3316V30.5841H58.8688V28.0469Z" fill="#373737"/>
<path d="M61.406 28.0469H58.8688V30.5841H61.406V28.0469Z" fill="#373737"/>
<path d="M74.0917 28.0469H71.5546V30.5841H74.0917V28.0469Z" fill="#373737"/>
<path d="M8.12563 30.5841H5.58848V33.1212H8.12563V30.5841Z" fill="#373737"/>
<path d="M15.7371 30.5841H13.2V33.1212H15.7371V30.5841Z" fill="#373737"/>
<path d="M18.2743 30.5841H15.7371V33.1212H18.2743V30.5841Z" fill="#373737"/>
<path d="M20.8114 30.5841H18.2743V33.1212H20.8114V30.5841Z" fill="#373737"/>
<path d="M25.8857 30.5841H23.3486V33.1212H25.8857V30.5841Z" fill="#373737"/>
<path d="M33.4972 30.5841H30.9601V33.1212H33.4972V30.5841Z" fill="#373737"/>
<path d="M36.0344 30.5841H33.4972V33.1212H36.0344V30.5841Z" fill="#373737"/>
<path d="M38.5715 30.5841H36.0344V33.1212H38.5715V30.5841Z" fill="#373737"/>
<path d="M41.1087 30.5841H38.5715V33.1212H41.1087V30.5841Z" fill="#373737"/>
<path d="M43.6458 30.5841H41.1087V33.1212H43.6458V30.5841Z" fill="#373737"/>
<path d="M53.7945 30.5841H51.2573V33.1212H53.7945V30.5841Z" fill="#373737"/>
<path d="M71.5546 30.5841H69.0174V33.1212H71.5546V30.5841Z" fill="#373737"/>
<path d="M74.0917 30.5841H71.5546V33.1212H74.0917V30.5841Z" fill="#373737"/>
<path d="M20.8114 33.1212H18.2743V35.6584H20.8114V33.1212Z" fill="#373737"/>
<path d="M23.3486 33.1212H20.8114V35.6584H23.3486V33.1212Z" fill="#373737"/>
<path d="M25.8857 33.1212H23.3486V35.6584H25.8857V33.1212Z" fill="#373737"/>
<path d="M28.4229 33.1212H25.8857V35.6584H28.4229V33.1212Z" fill="#373737"/>
<path d="M30.9601 33.1212H28.4229V35.6584H30.9601V33.1212Z" fill="#373737"/>
<path d="M33.4972 33.1212H30.9601V35.6584H33.4972V33.1212Z" fill="#373737"/>
<path d="M36.0344 33.1212H33.4972V35.6584H36.0344V33.1212Z" fill="#373737"/>
<path d="M38.5715 33.1212H36.0344V35.6584H38.5715V33.1212Z" fill="#373737"/>
<path d="M46.183 33.1212H43.6458V35.6584H46.183V33.1212Z" fill="#373737"/>
<path d="M53.7945 33.1212H51.2573V35.6584H53.7945V33.1212Z" fill="#373737"/>
<path d="M63.9431 33.1212H61.406V35.6584H63.9431V33.1212Z" fill="#373737"/>
<path d="M69.0174 33.1212H66.4803V35.6584H69.0174V33.1212Z" fill="#373737"/>
<path d="M71.5546 33.1212H69.0174V35.6584H71.5546V33.1212Z" fill="#373737"/>
<path d="M13.2 35.6584H10.6628V38.1956H13.2V35.6584Z" fill="#373737"/>
<path d="M18.2743 35.6584H15.7371V38.1956H18.2743V35.6584Z" fill="#373737"/>
<path d="M36.0344 35.6584H33.4972V38.1956H36.0344V35.6584Z" fill="#373737"/>
<path d="M43.6458 35.6584H41.1087V38.1956H43.6458V35.6584Z" fill="#373737"/>
<path d="M46.183 35.6584H43.6458V38.1956H46.183V35.6584Z" fill="#373737"/>
<path d="M51.2573 35.6584H48.7202V38.1956H51.2573V35.6584Z" fill="#373737"/>
<path d="M53.7945 35.6584H51.2573V38.1956H53.7945V35.6584Z" fill="#373737"/>
<path d="M56.3316 35.6584H53.7945V38.1956H56.3316V35.6584Z" fill="#373737"/>
<path d="M58.8688 35.6584H56.3316V38.1956H58.8688V35.6584Z" fill="#373737"/>
<path d="M61.406 35.6584H58.8688V38.1956H61.406V35.6584Z" fill="#373737"/>
<path d="M63.9431 35.6584H61.406V38.1956H63.9431V35.6584Z" fill="#373737"/>
<path d="M69.0174 35.6584H66.4803V38.1956H69.0174V35.6584Z" fill="#373737"/>
<path d="M3.05132 38.1956H0.51416V40.7327H3.05132V38.1956Z" fill="#373737"/>
<path d="M8.12563 38.1956H5.58848V40.7327H8.12563V38.1956Z" fill="#373737"/>
<path d="M13.2 38.1956H10.6628V40.7327H13.2V38.1956Z" fill="#373737"/>
<path d="M15.7371 38.1956H13.2V40.7327H15.7371V38.1956Z" fill="#373737"/>
<path d="M20.8114 38.1956H18.2743V40.7327H20.8114V38.1956Z" fill="#373737"/>
<path d="M28.4229 38.1956H25.8857V40.7327H28.4229V38.1956Z" fill="#373737"/>
<path d="M33.4972 38.1956H30.9601V40.7327H33.4972V38.1956Z" fill="#373737"/>
<path d="M41.1087 38.1956H38.5715V40.7327H41.1087V38.1956Z" fill="#373737"/>
<path d="M48.7202 38.1956H46.183V40.7327H48.7202V38.1956Z" fill="#373737"/>
<path d="M53.7945 38.1956H51.2573V40.7327H53.7945V38.1956Z" fill="#373737"/>
<path d="M61.406 38.1956H58.8688V40.7327H61.406V38.1956Z" fill="#373737"/>
<path d="M69.0174 38.1956H66.4803V40.7327H69.0174V38.1956Z" fill="#373737"/>
<path d="M74.0917 38.1956H71.5546V40.7327H74.0917V38.1956Z" fill="#373737"/>
<path d="M3.05132 40.7327H0.51416V43.2699H3.05132V40.7327Z" fill="#373737"/>
<path d="M5.58848 40.7327H3.05132V43.2699H5.58848V40.7327Z" fill="#373737"/>
<path d="M8.12563 40.7327H5.58848V43.2699H8.12563V40.7327Z" fill="#373737"/>
<path d="M10.6628 40.7327H8.12563V43.2699H10.6628V40.7327Z" fill="#373737"/>
<path d="M13.2 40.7327H10.6628V43.2699H13.2V40.7327Z" fill="#373737"/>
<path d="M15.7371 40.7327H13.2V43.2699H15.7371V40.7327Z" fill="#373737"/>
<path d="M18.2743 40.7327H15.7371V43.2699H18.2743V40.7327Z" fill="#373737"/>
<path d="M20.8114 40.7327H18.2743V43.2699H20.8114V40.7327Z" fill="#373737"/>
<path d="M25.8857 40.7327H23.3486V43.2699H25.8857V40.7327Z" fill="#373737"/>
<path d="M28.4229 40.7327H25.8857V43.2699H28.4229V40.7327Z" fill="#373737"/>
<path d="M30.9601 40.7327H28.4229V43.2699H30.9601V40.7327Z" fill="#373737"/>
<path d="M33.4972 40.7327H30.9601V43.2699H33.4972V40.7327Z" fill="#373737"/>
<path d="M36.0344 40.7327H33.4972V43.2699H36.0344V40.7327Z" fill="#373737"/>
<path d="M38.5715 40.7327H36.0344V43.2699H38.5715V40.7327Z" fill="#373737"/>
<path d="M43.6458 40.7327H41.1087V43.2699H43.6458V40.7327Z" fill="#373737"/>
<path d="M46.183 40.7327H43.6458V43.2699H46.183V40.7327Z" fill="#373737"/>
<path d="M53.7945 40.7327H51.2573V43.2699H53.7945V40.7327Z" fill="#373737"/>
<path d="M71.5546 40.7327H69.0174V43.2699H71.5546V40.7327Z" fill="#373737"/>
<path d="M5.58848 43.2699H3.05132V45.807H5.58848V43.2699Z" fill="#373737"/>
<path d="M10.6628 43.2699H8.12563V45.807H10.6628V43.2699Z" fill="#373737"/>
<path d="M13.2 43.2699H10.6628V45.807H13.2V43.2699Z" fill="#373737"/>
<path d="M15.7371 43.2699H13.2V45.807H15.7371V43.2699Z" fill="#373737"/>
<path d="M23.3486 43.2699H20.8114V45.807H23.3486V43.2699Z" fill="#373737"/>
<path d="M28.4229 43.2699H25.8857V45.807H28.4229V43.2699Z" fill="#373737"/>
<path d="M30.9601 43.2699H28.4229V45.807H30.9601V43.2699Z" fill="#373737"/>
<path d="M38.5715 43.2699H36.0344V45.807H38.5715V43.2699Z" fill="#373737"/>
<path d="M43.6458 43.2699H41.1087V45.807H43.6458V43.2699Z" fill="#373737"/>
<path d="M51.2573 43.2699H48.7202V45.807H51.2573V43.2699Z" fill="#373737"/>
<path d="M58.8688 43.2699H56.3316V45.807H58.8688V43.2699Z" fill="#373737"/>
<path d="M61.406 43.2699H58.8688V45.807H61.406V43.2699Z" fill="#373737"/>
<path d="M63.9431 43.2699H61.406V45.807H63.9431V43.2699Z" fill="#373737"/>
<path d="M66.4803 43.2699H63.9431V45.807H66.4803V43.2699Z" fill="#373737"/>
<path d="M69.0174 43.2699H66.4803V45.807H69.0174V43.2699Z" fill="#373737"/>
<path d="M71.5546 43.2699H69.0174V45.807H71.5546V43.2699Z" fill="#373737"/>
<path d="M74.0917 43.2699H71.5546V45.807H74.0917V43.2699Z" fill="#373737"/>
<path d="M3.05132 45.807H0.51416V48.3442H3.05132V45.807Z" fill="#373737"/>
<path d="M13.2 45.807H10.6628V48.3442H13.2V45.807Z" fill="#373737"/>
<path d="M18.2743 45.807H15.7371V48.3442H18.2743V45.807Z" fill="#373737"/>
<path d="M20.8114 45.807H18.2743V48.3442H20.8114V45.807Z" fill="#373737"/>
<path d="M25.8857 45.807H23.3486V48.3442H25.8857V45.807Z" fill="#373737"/>
<path d="M41.1087 45.807H38.5715V48.3442H41.1087V45.807Z" fill="#373737"/>
<path d="M43.6458 45.807H41.1087V48.3442H43.6458V45.807Z" fill="#373737"/>
<path d="M46.183 45.807H43.6458V48.3442H46.183V45.807Z" fill="#373737"/>
<path d="M51.2573 45.807H48.7202V48.3442H51.2573V45.807Z" fill="#373737"/>
<path d="M56.3316 45.807H53.7945V48.3442H56.3316V45.807Z" fill="#373737"/>
<path d="M58.8688 45.807H56.3316V48.3442H58.8688V45.807Z" fill="#373737"/>
<path d="M63.9431 45.807H61.406V48.3442H63.9431V45.807Z" fill="#373737"/>
<path d="M71.5546 45.807H69.0174V48.3442H71.5546V45.807Z" fill="#373737"/>
<path d="M5.58848 48.3442H3.05132V50.8813H5.58848V48.3442Z" fill="#373737"/>
<path d="M8.12563 48.3442H5.58848V50.8813H8.12563V48.3442Z" fill="#373737"/>
<path d="M13.2 48.3442H10.6628V50.8813H13.2V48.3442Z" fill="#373737"/>
<path d="M20.8114 48.3442H18.2743V50.8813H20.8114V48.3442Z" fill="#373737"/>
<path d="M25.8857 48.3442H23.3486V50.8813H25.8857V48.3442Z" fill="#373737"/>
<path d="M30.9601 48.3442H28.4229V50.8813H30.9601V48.3442Z" fill="#373737"/>
<path d="M33.4972 48.3442H30.9601V50.8813H33.4972V48.3442Z" fill="#373737"/>
<path d="M38.5715 48.3442H36.0344V50.8813H38.5715V48.3442Z" fill="#373737"/>
<path d="M41.1087 48.3442H38.5715V50.8813H41.1087V48.3442Z" fill="#373737"/>
<path d="M43.6458 48.3442H41.1087V50.8813H43.6458V48.3442Z" fill="#373737"/>
<path d="M46.183 48.3442H43.6458V50.8813H46.183V48.3442Z" fill="#373737"/>
<path d="M48.7202 48.3442H46.183V50.8813H48.7202V48.3442Z" fill="#373737"/>
<path d="M51.2573 48.3442H48.7202V50.8813H51.2573V48.3442Z" fill="#373737"/>
<path d="M58.8688 48.3442H56.3316V50.8813H58.8688V48.3442Z" fill="#373737"/>
<path d="M61.406 48.3442H58.8688V50.8813H61.406V48.3442Z" fill="#373737"/>
<path d="M63.9431 48.3442H61.406V50.8813H63.9431V48.3442Z" fill="#373737"/>
<path d="M74.0917 48.3442H71.5546V50.8813H74.0917V48.3442Z" fill="#373737"/>
<path d="M5.58848 50.8813H3.05132V53.4185H5.58848V50.8813Z" fill="#373737"/>
<path d="M8.12563 50.8813H5.58848V53.4185H8.12563V50.8813Z" fill="#373737"/>
<path d="M10.6628 50.8813H8.12563V53.4185H10.6628V50.8813Z" fill="#373737"/>
<path d="M15.7371 50.8813H13.2V53.4185H15.7371V50.8813Z" fill="#373737"/>
<path d="M18.2743 50.8813H15.7371V53.4185H18.2743V50.8813Z" fill="#373737"/>
<path d="M20.8114 50.8813H18.2743V53.4185H20.8114V50.8813Z" fill="#373737"/>
<path d="M28.4229 50.8813H25.8857V53.4185H28.4229V50.8813Z" fill="#373737"/>
<path d="M33.4972 50.8813H30.9601V53.4185H33.4972V50.8813Z" fill="#373737"/>
<path d="M38.5715 50.8813H36.0344V53.4185H38.5715V50.8813Z" fill="#373737"/>
<path d="M43.6458 50.8813H41.1087V53.4185H43.6458V50.8813Z" fill="#373737"/>
<path d="M53.7945 50.8813H51.2573V53.4185H53.7945V50.8813Z" fill="#373737"/>
<path d="M56.3316 50.8813H53.7945V53.4185H56.3316V50.8813Z" fill="#373737"/>
<path d="M58.8688 50.8813H56.3316V53.4185H58.8688V50.8813Z" fill="#373737"/>
<path d="M61.406 50.8813H58.8688V53.4185H61.406V50.8813Z" fill="#373737"/>
<path d="M63.9431 50.8813H61.406V53.4185H63.9431V50.8813Z" fill="#373737"/>
<path d="M69.0174 50.8813H66.4803V53.4185H69.0174V50.8813Z" fill="#373737"/>
<path d="M74.0917 50.8813H71.5546V53.4185H74.0917V50.8813Z" fill="#373737"/>
<path d="M23.3486 53.4185H20.8114V55.9557H23.3486V53.4185Z" fill="#373737"/>
<path d="M25.8857 53.4185H23.3486V55.9557H25.8857V53.4185Z" fill="#373737"/>
<path d="M30.9601 53.4185H28.4229V55.9557H30.9601V53.4185Z" fill="#373737"/>
<path d="M38.5715 53.4185H36.0344V55.9557H38.5715V53.4185Z" fill="#373737"/>
<path d="M43.6458 53.4185H41.1087V55.9557H43.6458V53.4185Z" fill="#373737"/>
<path d="M53.7945 53.4185H51.2573V55.9557H53.7945V53.4185Z" fill="#373737"/>
<path d="M63.9431 53.4185H61.406V55.9557H63.9431V53.4185Z" fill="#373737"/>
<path d="M66.4803 53.4185H63.9431V55.9557H66.4803V53.4185Z" fill="#373737"/>
<path d="M69.0174 53.4185H66.4803V55.9557H69.0174V53.4185Z" fill="#373737"/>
<path d="M3.05132 55.9557H0.51416V58.4928H3.05132V55.9557Z" fill="#373737"/>
<path d="M5.58848 55.9557H3.05132V58.4928H5.58848V55.9557Z" fill="#373737"/>
<path d="M8.12563 55.9557H5.58848V58.4928H8.12563V55.9557Z" fill="#373737"/>
<path d="M10.6628 55.9557H8.12563V58.4928H10.6628V55.9557Z" fill="#373737"/>
<path d="M13.2 55.9557H10.6628V58.4928H13.2V55.9557Z" fill="#373737"/>
<path d="M15.7371 55.9557H13.2V58.4928H15.7371V55.9557Z" fill="#373737"/>
<path d="M18.2743 55.9557H15.7371V58.4928H18.2743V55.9557Z" fill="#373737"/>
<path d="M30.9601 55.9557H28.4229V58.4928H30.9601V55.9557Z" fill="#373737"/>
<path d="M33.4972 55.9557H30.9601V58.4928H33.4972V55.9557Z" fill="#373737"/>
<path d="M36.0344 55.9557H33.4972V58.4928H36.0344V55.9557Z" fill="#373737"/>
<path d="M38.5715 55.9557H36.0344V58.4928H38.5715V55.9557Z" fill="#373737"/>
<path d="M51.2573 55.9557H48.7202V58.4928H51.2573V55.9557Z" fill="#373737"/>
<path d="M53.7945 55.9557H51.2573V58.4928H53.7945V55.9557Z" fill="#373737"/>
<path d="M58.8688 55.9557H56.3316V58.4928H58.8688V55.9557Z" fill="#373737"/>
<path d="M63.9431 55.9557H61.406V58.4928H63.9431V55.9557Z" fill="#373737"/>
<path d="M71.5546 55.9557H69.0174V58.4928H71.5546V55.9557Z" fill="#373737"/>
<path d="M74.0917 55.9557H71.5546V58.4928H74.0917V55.9557Z" fill="#373737"/>
<path d="M3.05132 58.4928H0.51416V61.03H3.05132V58.4928Z" fill="#373737"/>
<path d="M18.2743 58.4928H15.7371V61.03H18.2743V58.4928Z" fill="#373737"/>
<path d="M25.8857 58.4928H23.3486V61.03H25.8857V58.4928Z" fill="#373737"/>
<path d="M28.4229 58.4928H25.8857V61.03H28.4229V58.4928Z" fill="#373737"/>
<path d="M30.9601 58.4928H28.4229V61.03H30.9601V58.4928Z" fill="#373737"/>
<path d="M33.4972 58.4928H30.9601V61.03H33.4972V58.4928Z" fill="#373737"/>
<path d="M36.0344 58.4928H33.4972V61.03H36.0344V58.4928Z" fill="#373737"/>
<path d="M41.1087 58.4928H38.5715V61.03H41.1087V58.4928Z" fill="#373737"/>
<path d="M53.7945 58.4928H51.2573V61.03H53.7945V58.4928Z" fill="#373737"/>
<path d="M63.9431 58.4928H61.406V61.03H63.9431V58.4928Z" fill="#373737"/>
<path d="M69.0174 58.4928H66.4803V61.03H69.0174V58.4928Z" fill="#373737"/>
<path d="M71.5546 58.4928H69.0174V61.03H71.5546V58.4928Z" fill="#373737"/>
<path d="M3.05132 61.03H0.51416V63.5671H3.05132V61.03Z" fill="#373737"/>
<path d="M8.12563 61.03H5.58848V63.5671H8.12563V61.03Z" fill="#373737"/>
<path d="M10.6628 61.03H8.12563V63.5671H10.6628V61.03Z" fill="#373737"/>
<path d="M13.2 61.03H10.6628V63.5671H13.2V61.03Z" fill="#373737"/>
<path d="M18.2743 61.03H15.7371V63.5671H18.2743V61.03Z" fill="#373737"/>
<path d="M23.3486 61.03H20.8114V63.5671H23.3486V61.03Z" fill="#373737"/>
<path d="M25.8857 61.03H23.3486V63.5671H25.8857V61.03Z" fill="#373737"/>
<path d="M28.4229 61.03H25.8857V63.5671H28.4229V61.03Z" fill="#373737"/>
<path d="M36.0344 61.03H33.4972V63.5671H36.0344V61.03Z" fill="#373737"/>
<path d="M38.5715 61.03H36.0344V63.5671H38.5715V61.03Z" fill="#373737"/>
<path d="M41.1087 61.03H38.5715V63.5671H41.1087V61.03Z" fill="#373737"/>
<path d="M46.183 61.03H43.6458V63.5671H46.183V61.03Z" fill="#373737"/>
<path d="M48.7202 61.03H46.183V63.5671H48.7202V61.03Z" fill="#373737"/>
<path d="M53.7945 61.03H51.2573V63.5671H53.7945V61.03Z" fill="#373737"/>
<path d="M56.3316 61.03H53.7945V63.5671H56.3316V61.03Z" fill="#373737"/>
<path d="M58.8688 61.03H56.3316V63.5671H58.8688V61.03Z" fill="#373737"/>
<path d="M61.406 61.03H58.8688V63.5671H61.406V61.03Z" fill="#373737"/>
<path d="M63.9431 61.03H61.406V63.5671H63.9431V61.03Z" fill="#373737"/>
<path d="M69.0174 61.03H66.4803V63.5671H69.0174V61.03Z" fill="#373737"/>
<path d="M74.0917 61.03H71.5546V63.5671H74.0917V61.03Z" fill="#373737"/>
<path d="M3.05132 63.5671H0.51416V66.1043H3.05132V63.5671Z" fill="#373737"/>
<path d="M8.12563 63.5671H5.58848V66.1043H8.12563V63.5671Z" fill="#373737"/>
<path d="M10.6628 63.5671H8.12563V66.1043H10.6628V63.5671Z" fill="#373737"/>
<path d="M13.2 63.5671H10.6628V66.1043H13.2V63.5671Z" fill="#373737"/>
<path d="M18.2743 63.5671H15.7371V66.1043H18.2743V63.5671Z" fill="#373737"/>
<path d="M30.9601 63.5671H28.4229V66.1043H30.9601V63.5671Z" fill="#373737"/>
<path d="M36.0344 63.5671H33.4972V66.1043H36.0344V63.5671Z" fill="#373737"/>
<path d="M43.6458 63.5671H41.1087V66.1043H43.6458V63.5671Z" fill="#373737"/>
<path d="M48.7202 63.5671H46.183V66.1043H48.7202V63.5671Z" fill="#373737"/>
<path d="M51.2573 63.5671H48.7202V66.1043H51.2573V63.5671Z" fill="#373737"/>
<path d="M53.7945 63.5671H51.2573V66.1043H53.7945V63.5671Z" fill="#373737"/>
<path d="M56.3316 63.5671H53.7945V66.1043H56.3316V63.5671Z" fill="#373737"/>
<path d="M58.8688 63.5671H56.3316V66.1043H58.8688V63.5671Z" fill="#373737"/>
<path d="M63.9431 63.5671H61.406V66.1043H63.9431V63.5671Z" fill="#373737"/>
<path d="M71.5546 63.5671H69.0174V66.1043H71.5546V63.5671Z" fill="#373737"/>
<path d="M3.05132 66.1043H0.51416V68.6415H3.05132V66.1043Z" fill="#373737"/>
<path d="M8.12563 66.1043H5.58848V68.6415H8.12563V66.1043Z" fill="#373737"/>
<path d="M10.6628 66.1043H8.12563V68.6415H10.6628V66.1043Z" fill="#373737"/>
<path d="M13.2 66.1043H10.6628V68.6415H13.2V66.1043Z" fill="#373737"/>
<path d="M18.2743 66.1043H15.7371V68.6415H18.2743V66.1043Z" fill="#373737"/>
<path d="M23.3486 66.1043H20.8114V68.6415H23.3486V66.1043Z" fill="#373737"/>
<path d="M25.8857 66.1043H23.3486V68.6415H25.8857V66.1043Z" fill="#373737"/>
<path d="M28.4229 66.1043H25.8857V68.6415H28.4229V66.1043Z" fill="#373737"/>
<path d="M36.0344 66.1043H33.4972V68.6415H36.0344V66.1043Z" fill="#373737"/>
<path d="M38.5715 66.1043H36.0344V68.6415H38.5715V66.1043Z" fill="#373737"/>
<path d="M41.1087 66.1043H38.5715V68.6415H41.1087V66.1043Z" fill="#373737"/>
<path d="M46.183 66.1043H43.6458V68.6415H46.183V66.1043Z" fill="#373737"/>
<path d="M51.2573 66.1043H48.7202V68.6415H51.2573V66.1043Z" fill="#373737"/>
<path d="M53.7945 66.1043H51.2573V68.6415H53.7945V66.1043Z" fill="#373737"/>
<path d="M69.0174 66.1043H66.4803V68.6415H69.0174V66.1043Z" fill="#373737"/>
<path d="M71.5546 66.1043H69.0174V68.6415H71.5546V66.1043Z" fill="#373737"/>
<path d="M3.05132 68.6415H0.51416V71.1786H3.05132V68.6415Z" fill="#373737"/>
<path d="M18.2743 68.6415H15.7371V71.1786H18.2743V68.6415Z" fill="#373737"/>
<path d="M23.3486 68.6415H20.8114V71.1786H23.3486V68.6415Z" fill="#373737"/>
<path d="M25.8857 68.6415H23.3486V71.1786H25.8857V68.6415Z" fill="#373737"/>
<path d="M36.0344 68.6415H33.4972V71.1786H36.0344V68.6415Z" fill="#373737"/>
<path d="M46.183 68.6415H43.6458V71.1786H46.183V68.6415Z" fill="#373737"/>
<path d="M53.7945 68.6415H51.2573V71.1786H53.7945V68.6415Z" fill="#373737"/>
<path d="M63.9431 68.6415H61.406V71.1786H63.9431V68.6415Z" fill="#373737"/>
<path d="M66.4803 68.6415H63.9431V71.1786H66.4803V68.6415Z" fill="#373737"/>
<path d="M69.0174 68.6415H66.4803V71.1786H69.0174V68.6415Z" fill="#373737"/>
<path d="M3.05132 71.1786H0.51416V73.7158H3.05132V71.1786Z" fill="#373737"/>
<path d="M5.58848 71.1786H3.05132V73.7158H5.58848V71.1786Z" fill="#373737"/>
<path d="M8.12563 71.1786H5.58848V73.7158H8.12563V71.1786Z" fill="#373737"/>
<path d="M10.6628 71.1786H8.12563V73.7158H10.6628V71.1786Z" fill="#373737"/>
<path d="M13.2 71.1786H10.6628V73.7158H13.2V71.1786Z" fill="#373737"/>
<path d="M15.7371 71.1786H13.2V73.7158H15.7371V71.1786Z" fill="#373737"/>
<path d="M18.2743 71.1786H15.7371V73.7158H18.2743V71.1786Z" fill="#373737"/>
<path d="M23.3486 71.1786H20.8114V73.7158H23.3486V71.1786Z" fill="#373737"/>
<path d="M30.9601 71.1786H28.4229V73.7158H30.9601V71.1786Z" fill="#373737"/>
<path d="M33.4972 71.1786H30.9601V73.7158H33.4972V71.1786Z" fill="#373737"/>
<path d="M36.0344 71.1786H33.4972V73.7158H36.0344V71.1786Z" fill="#373737"/>
<path d="M38.5715 71.1786H36.0344V73.7158H38.5715V71.1786Z" fill="#373737"/>
<path d="M41.1087 71.1786H38.5715V73.7158H41.1087V71.1786Z" fill="#373737"/>
<path d="M48.7202 71.1786H46.183V73.7158H48.7202V71.1786Z" fill="#373737"/>
<path d="M69.0174 71.1786H66.4803V73.7158H69.0174V71.1786Z" fill="#373737"/>
<path d="M71.5546 71.1786H69.0174V73.7158H71.5546V71.1786Z" fill="#373737"/>
</svg>
